<?xml version="1.0" standalone="no"?>
<!DOCTYPE svg PUBLIC "-//W3C//DTD SVG 20010904//EN"
 "http://www.w3.org/TR/2001/REC-SVG-20010904/DTD/svg10.dtd">
<svg version="1.0" xmlns="http://www.w3.org/2000/svg"
 width="200.000000pt" height="200.000000pt" viewBox="0 0 200.000000 200.000000"
 preserveAspectRatio="xMidYMid meet">

<g transform="translate(0.000000,200.000000) scale(0.100000,-0.100000)"
fill="#000000" stroke="none">
<path d="M0 1000 l0 -1000 1000 0 1000 0 0 1000 0 1000 -1000 0 -1000 0 0
-1000z m953 683 c111 -92 248 -253 329 -388 59 -99 110 -207 101 -215 -4 -4
-39 -19 -78 -34 -92 -36 -178 -83 -299 -164 l-100 -67 71 -16 c76 -17 133 -38
133 -48 0 -3 -21 -18 -48 -33 -118 -67 -244 -197 -299 -310 -15 -31 -29 -56
-30 -54 -2 1 11 43 28 92 40 118 41 173 2 227 -17 22 -45 49 -64 59 -38 20
-119 24 -168 7 -41 -14 -67 2 -124 78 -23 31 -57 73 -74 93 -18 21 -33 46 -33
57 0 11 23 50 50 86 35 47 53 82 61 119 6 29 17 62 24 74 8 12 59 52 115 89
56 38 107 78 113 89 7 13 12 68 13 139 0 64 4 120 8 124 4 5 36 -23 70 -62
l63 -70 12 53 c6 29 11 68 11 86 0 64 23 62 113 -11z m672 -746 c-78 -32 -130
-62 -153 -89 -8 -11 2 -24 47 -61 51 -42 163 -165 182 -199 6 -10 -27 -13
-154 -14 -232 -2 -429 -40 -582 -113 -66 -31 -177 -111 -200 -144 -8 -12 -15
-18 -15 -13 0 4 25 41 56 82 114 151 247 241 454 304 l104 33 -36 31 c-20 18
-64 46 -97 63 -66 34 -65 36 4 70 99 50 248 81 390 82 l80 0 -80 -32z"/>
<path d="M880 1603 c0 -21 -7 -69 -16 -108 -8 -38 -17 -81 -20 -95 -5 -23 -1
-27 58 -46 35 -11 71 -24 81 -28 25 -12 23 39 -8 130 -22 66 -80 184 -91 184
-2 0 -4 -17 -4 -37z"/>
</g>
</svg>
