<?xml version="1.0" standalone="no"?>
<!DOCTYPE svg PUBLIC "-//W3C//DTD SVG 20010904//EN"
 "http://www.w3.org/TR/2001/REC-SVG-20010904/DTD/svg10.dtd">
<svg version="1.0" xmlns="http://www.w3.org/2000/svg"
 width="184.000000pt" height="184.000000pt" viewBox="0 0 184.000000 184.000000"
 preserveAspectRatio="xMidYMid meet">

<g transform="translate(0.000000,184.000000) scale(0.100000,-0.100000)"
fill="#000000" stroke="none">
<path d="M823 1813 c15 -2 37 -2 50 0 12 2 0 4 -28 4 -27 0 -38 -2 -22 -4z"/>
<path d="M973 1813 c15 -2 37 -2 50 0 12 2 0 4 -28 4 -27 0 -38 -2 -22 -4z"/>
<path d="M758 1803 c6 -2 18 -2 25 0 6 3 1 5 -13 5 -14 0 -19 -2 -12 -5z"/>
<path d="M1058 1803 c6 -2 18 -2 25 0 6 3 1 5 -13 5 -14 0 -19 -2 -12 -5z"/>
<path d="M703 1793 c9 -2 23 -2 30 0 6 3 -1 5 -18 5 -16 0 -22 -2 -12 -5z"/>
<path d="M1135 1790 c22 -5 57 -16 79 -25 21 -9 40 -14 42 -12 8 8 -108 47
-134 46 -20 -1 -17 -3 13 -9z"/>
<path d="M615 1769 c-22 -10 -29 -16 -16 -13 37 10 88 33 71 33 -8 0 -33 -9
-55 -20z"/>
<path d="M510 1728 c-188 -111 -296 -219 -399 -401 -11 -21 -21 -43 -21 -50 0
-7 12 11 26 38 38 72 86 144 130 193 l39 43 154 -155 154 -155 -19 -27 c-40
-56 -54 -79 -54 -89 1 -5 9 4 18 21 9 17 27 44 40 59 l23 29 76 -76 76 -76
-23 -33 -22 -34 27 29 27 29 71 -69 c40 -38 5 0 -78 83 -144 147 -149 153
-130 168 19 15 19 16 -4 4 -22 -10 -33 -2 -178 142 l-154 154 43 39 c49 44
121 92 193 130 27 14 43 26 35 25 -8 0 -31 -10 -50 -21z"/>
<path d="M1315 1724 c69 -36 121 -71 183 -123 l54 -44 -154 -154 c-84 -84
-156 -153 -160 -153 -3 0 -14 7 -22 16 -9 8 -16 11 -16 5 0 -5 8 -14 18 -20
15 -9 7 -20 -58 -86 -42 -42 -81 -73 -88 -70 -8 3 -10 0 -6 -6 3 -6 -24 -43
-62 -83 l-69 -71 72 69 72 69 20 -24 c11 -13 21 -31 21 -39 1 -10 3 -11 7 -3
2 7 -5 27 -18 44 l-22 31 76 76 76 76 23 -29 c30 -38 68 -104 78 -135 7 -20 8
-21 9 -5 0 18 -35 81 -83 149 l-19 27 154 155 154 155 39 -43 c44 -49 92 -121
130 -193 14 -27 26 -45 26 -38 0 7 -10 29 -21 50 -104 183 -219 298 -402 402
-21 11 -43 21 -50 21 -7 0 11 -12 38 -26z"/>
<path d="M863 1593 c9 -2 25 -2 35 0 9 3 1 5 -18 5 -19 0 -27 -2 -17 -5z"/>
<path d="M943 1593 c9 -2 25 -2 35 0 9 3 1 5 -18 5 -19 0 -27 -2 -17 -5z"/>
<path d="M780 1580 c-11 -7 -5 -8 20 -4 43 8 51 14 19 14 -13 0 -31 -5 -39
-10z"/>
<path d="M1025 1580 c17 -4 39 -8 50 -8 16 0 15 2 -5 8 -14 4 -36 8 -50 8 -22
0 -22 -1 5 -8z"/>
<path d="M1149 1550 c24 -11 46 -20 50 -20 12 1 -64 39 -79 39 -8 0 5 -8 29
-19z"/>
<path d="M1250 1503 c25 -14 64 -41 87 -60 47 -38 69 -46 25 -9 -41 35 -135
96 -147 96 -5 0 10 -12 35 -27z"/>
<path d="M466 1425 c-11 -8 -15 -15 -9 -15 6 0 16 7 23 15 16 19 11 19 -14 0z"/>
<path d="M403 1360 c-35 -43 -93 -133 -93 -145 0 -5 12 10 27 35 14 25 42 64
61 88 19 24 33 45 31 46 -2 2 -14 -9 -26 -24z"/>
<path d="M1410 1385 c0 -4 15 -25 33 -48 19 -23 46 -62 60 -87 15 -25 27 -40
27 -35 0 6 -16 35 -36 64 -38 59 -84 116 -84 106z"/>
<path d="M853 1363 c9 -2 23 -2 30 0 6 3 -1 5 -18 5 -16 0 -22 -2 -12 -5z"/>
<path d="M963 1363 c9 -2 23 -2 30 0 6 3 -1 5 -18 5 -16 0 -22 -2 -12 -5z"/>
<path d="M1018 1353 c7 -3 16 -2 19 1 4 3 -2 6 -13 5 -11 0 -14 -3 -6 -6z"/>
<path d="M1058 1343 c7 -3 16 -2 19 1 4 3 -2 6 -13 5 -11 0 -14 -3 -6 -6z"/>
<path d="M66 1217 c-23 -61 -19 -72 5 -13 11 27 18 50 16 53 -2 2 -12 -16 -21
-40z"/>
<path d="M1756 1241 c10 -37 33 -88 33 -71 0 8 -9 33 -20 55 -10 22 -16 29
-13 16z"/>
<path d="M1530 1199 c0 -4 9 -26 20 -50 11 -24 19 -37 19 -29 0 15 -38 91 -39
79z"/>
<path d="M276 1145 c-9 -26 -7 -32 5 -12 6 10 9 21 6 23 -2 3 -7 -2 -11 -11z"/>
<path d="M42 1125 c0 -16 2 -22 5 -12 2 9 2 23 0 30 -3 6 -5 -1 -5 -18z"/>
<path d="M888 1143 c7 -3 16 -2 19 1 4 3 -2 6 -13 5 -11 0 -14 -3 -6 -6z"/>
<path d="M938 1143 c7 -3 16 -2 19 1 4 3 -2 6 -13 5 -11 0 -14 -3 -6 -6z"/>
<path d="M1792 1125 c0 -16 2 -22 5 -12 2 9 2 23 0 30 -3 6 -5 -1 -5 -18z"/>
<path d="M970 1136 c0 -2 7 -7 16 -10 8 -3 12 -2 9 4 -6 10 -25 14 -25 6z"/>
<path d="M32 1070 c0 -14 2 -19 5 -12 2 6 2 18 0 25 -3 6 -5 1 -5 -13z"/>
<path d="M261 1074 c0 -11 3 -14 6 -6 3 7 2 16 -1 19 -3 4 -6 -2 -5 -13z"/>
<path d="M1572 1075 c0 -11 4 -33 8 -50 7 -27 8 -27 8 -5 0 14 -4 36 -8 50 -6
20 -8 21 -8 5z"/>
<path d="M1802 1070 c0 -14 2 -19 5 -12 2 6 2 18 0 25 -3 6 -5 1 -5 -13z"/>
<path d="M252 1030 c0 -14 2 -19 5 -12 2 6 2 18 0 25 -3 6 -5 1 -5 -13z"/>
<path d="M23 995 c0 -27 2 -38 4 -22 2 15 2 37 0 50 -2 12 -4 0 -4 -28z"/>
<path d="M1351 1024 c0 -11 3 -14 6 -6 3 7 2 16 -1 19 -3 4 -6 -2 -5 -13z"/>
<path d="M1813 995 c0 -27 2 -38 4 -22 2 15 2 37 0 50 -2 12 -4 0 -4 -28z"/>
<path d="M1362 975 c0 -16 2 -22 5 -12 2 9 2 23 0 30 -3 6 -5 -1 -5 -18z"/>
<path d="M242 960 c0 -19 2 -27 5 -17 2 9 2 25 0 35 -3 9 -5 1 -5 -18z"/>
<path d="M1592 960 c0 -19 2 -27 5 -17 2 9 2 25 0 35 -3 9 -5 1 -5 -18z"/>
<path d="M1017 944 c-77 -21 -76 -22 10 -23 76 -1 81 0 76 19 -6 23 -18 23
-86 4z"/>
<path d="M1141 944 c0 -11 3 -14 6 -6 3 7 2 16 -1 19 -3 4 -6 -2 -5 -13z"/>
<path d="M242 880 c0 -19 2 -27 5 -17 2 9 2 25 0 35 -3 9 -5 1 -5 -18z"/>
<path d="M1141 894 c0 -11 3 -14 6 -6 3 7 2 16 -1 19 -3 4 -6 -2 -5 -13z"/>
<path d="M1592 880 c0 -19 2 -27 5 -17 2 9 2 25 0 35 -3 9 -5 1 -5 -18z"/>
<path d="M830 835 c-36 -36 -70 -63 -77 -61 -7 3 -10 0 -7 -7 2 -7 -29 -46
-70 -86 l-75 -75 -23 29 c-30 38 -69 104 -78 135 -7 20 -8 21 -9 5 0 -18 35
-81 83 -149 l19 -27 -154 -155 -154 -155 -39 43 c-44 49 -92 121 -130 193 -14
27 -26 45 -26 38 0 -7 10 -29 21 -50 104 -183 219 -298 402 -402 21 -11 43
-21 50 -21 7 0 -11 12 -38 26 -72 38 -144 86 -193 130 l-43 39 155 154 155
154 27 -19 c68 -48 131 -83 149 -83 16 1 15 2 -5 9 -31 10 -97 48 -135 78
l-29 23 76 76 76 76 31 -22 c17 -13 37 -20 44 -18 8 4 7 6 -3 7 -8 0 -26 10
-39 21 l-24 20 69 70 c37 38 66 69 63 69 -2 0 -34 -29 -69 -65z"/>
<path d="M940 896 c0 -2 8 -10 18 -17 15 -13 16 -12 3 4 -13 16 -21 21 -21 13z"/>
<path d="M23 845 c0 -27 2 -38 4 -22 2 15 2 37 0 50 -2 12 -4 0 -4 -28z"/>
<path d="M1362 865 c0 -16 2 -22 5 -12 2 9 2 23 0 30 -3 6 -5 -1 -5 -18z"/>
<path d="M1813 845 c0 -27 2 -38 4 -22 2 15 2 37 0 50 -2 12 -4 0 -4 -28z"/>
<path d="M701 864 c0 -11 3 -14 6 -6 3 7 2 16 -1 19 -3 4 -6 -2 -5 -13z"/>
<path d="M252 820 c0 -14 4 -36 8 -50 6 -20 8 -21 8 -5 0 11 -4 34 -8 50 -7
27 -8 27 -8 5z"/>
<path d="M1121 829 c-1 -9 -8 -22 -16 -29 -8 -7 -15 -17 -15 -23 0 -5 9 2 21
17 11 14 18 32 16 39 -4 7 -6 6 -6 -4z"/>
<path d="M1576 799 c-4 -23 -5 -44 -2 -46 2 -2 7 14 11 37 4 23 5 43 2 46 -2
3 -7 -14 -11 -37z"/>
<path d="M481 814 c0 -11 3 -14 6 -6 3 7 2 16 -1 19 -3 4 -6 -2 -5 -13z"/>
<path d="M1351 814 c0 -11 3 -14 6 -6 3 7 2 16 -1 19 -3 4 -6 -2 -5 -13z"/>
<path d="M32 770 c0 -14 2 -19 5 -12 2 6 2 18 0 25 -3 6 -5 1 -5 -13z"/>
<path d="M1341 777 c0 -10 -17 -46 -36 -78 -19 -33 -31 -58 -26 -55 18 12 72
118 68 134 -4 15 -5 14 -6 -1z"/>
<path d="M1802 770 c0 -14 2 -19 5 -12 2 6 2 18 0 25 -3 6 -5 1 -5 -13z"/>
<path d="M1040 735 c-7 -8 -20 -15 -29 -16 -10 0 -11 -2 -4 -6 7 -2 25 5 39
16 15 12 22 21 17 21 -6 0 -16 -7 -23 -15z"/>
<path d="M42 715 c0 -16 2 -22 5 -12 2 9 2 23 0 30 -3 6 -5 -1 -5 -18z"/>
<path d="M1792 715 c0 -16 2 -22 5 -12 2 9 2 23 0 30 -3 6 -5 -1 -5 -18z"/>
<path d="M271 720 c0 -15 38 -91 39 -79 0 4 -9 26 -20 50 -11 24 -19 37 -19
29z"/>
<path d="M1550 693 c-23 -58 -23 -61 0 -20 12 21 20 43 18 48 -2 6 -10 -7 -18
-28z"/>
<path d="M968 703 c7 -3 16 -2 19 1 4 3 -2 6 -13 5 -11 0 -14 -3 -6 -6z"/>
<path d="M51 670 c0 -8 9 -33 20 -55 10 -22 16 -29 13 -16 -10 37 -33 88 -33
71z"/>
<path d="M1767 633 c-9 -25 -16 -48 -14 -50 2 -2 12 17 22 42 9 26 15 48 13
50 -2 2 -12 -17 -21 -42z"/>
<path d="M310 625 c0 -12 61 -106 96 -147 37 -44 29 -22 -9 25 -19 23 -46 62
-60 87 -15 25 -27 40 -27 35z"/>
<path d="M1493 574 c-18 -30 -29 -52 -24 -49 12 6 64 95 59 100 -1 2 -18 -21
-35 -51z"/>
<path d="M1140 535 c-30 -19 -64 -35 -75 -36 -16 -1 -16 -2 -3 -6 16 -4 122
50 134 68 7 12 6 12 -56 -26z"/>
<path d="M1725 527 c-29 -59 -72 -124 -123 -185 l-45 -54 -56 54 -56 53 53
-56 54 -56 -54 -44 c-62 -52 -114 -87 -183 -123 -27 -14 -45 -26 -38 -26 25 0
143 74 226 142 54 44 124 122 173 193 30 45 78 134 73 139 -2 3 -13 -14 -24
-37z"/>
<path d="M1018 483 c7 -3 16 -2 19 1 4 3 -2 6 -13 5 -11 0 -14 -3 -6 -6z"/>
<path d="M478 406 c41 -35 135 -96 147 -96 5 0 -10 12 -35 27 -25 14 -64 41
-87 60 -47 38 -69 46 -25 9z"/>
<path d="M1260 344 c-30 -19 -51 -34 -47 -34 12 0 96 50 103 61 7 12 6 12 -56
-27z"/>
<path d="M670 290 c19 -11 42 -19 50 -19 8 0 -5 8 -29 19 -55 25 -67 25 -21 0z"/>
<path d="M1145 289 c-22 -10 -33 -18 -25 -18 8 0 31 8 50 19 45 25 27 24 -25
-1z"/>
<path d="M770 260 c14 -4 36 -8 50 -8 22 0 22 1 -5 8 -16 4 -39 8 -50 8 -16 0
-15 -2 5 -8z"/>
<path d="M1025 260 c-27 -7 -27 -8 -5 -8 14 0 36 4 50 8 20 6 21 8 5 8 -11 0
-33 -4 -50 -8z"/>
<path d="M863 243 c9 -2 25 -2 35 0 9 3 1 5 -18 5 -19 0 -27 -2 -17 -5z"/>
<path d="M943 243 c9 -2 25 -2 35 0 9 3 1 5 -18 5 -19 0 -27 -2 -17 -5z"/>
<path d="M615 71 c22 -11 47 -20 55 -20 17 0 -34 23 -71 33 -13 3 -6 -3 16
-13z"/>
<path d="M1210 74 c-19 -9 -53 -20 -75 -24 l-40 -9 40 3 c36 4 145 44 120 45
-5 0 -26 -7 -45 -15z"/>
<path d="M703 43 c9 -2 23 -2 30 0 6 3 -1 5 -18 5 -16 0 -22 -2 -12 -5z"/>
<path d="M758 33 c6 -2 18 -2 25 0 6 3 1 5 -13 5 -14 0 -19 -2 -12 -5z"/>
<path d="M1058 33 c6 -2 18 -2 25 0 6 3 1 5 -13 5 -14 0 -19 -2 -12 -5z"/>
<path d="M823 23 c15 -2 37 -2 50 0 12 2 0 4 -28 4 -27 0 -38 -2 -22 -4z"/>
<path d="M973 23 c15 -2 37 -2 50 0 12 2 0 4 -28 4 -27 0 -38 -2 -22 -4z"/>
</g>
</svg>
