<?xml version="1.0" standalone="no"?>
<!DOCTYPE svg PUBLIC "-//W3C//DTD SVG 20010904//EN"
 "http://www.w3.org/TR/2001/REC-SVG-20010904/DTD/svg10.dtd">
<svg version="1.0" xmlns="http://www.w3.org/2000/svg"
 width="171.000000pt" height="148.000000pt" viewBox="0 0 171.000000 148.000000"
 preserveAspectRatio="xMidYMid meet">

<g transform="translate(0.000000,148.000000) scale(0.100000,-0.100000)"
fill="#000000" stroke="none">
<path d="M0 740 l0 -740 855 0 855 0 0 740 0 740 -855 0 -855 0 0 -740z m789
420 c78 -115 144 -210 146 -210 2 0 86 95 185 210 l181 210 76 0 c72 0 75 -1
61 -17 -8 -10 -108 -127 -222 -261 -135 -158 -206 -248 -202 -258 3 -8 110
-168 239 -357 128 -188 236 -348 241 -354 6 -10 -35 -13 -191 -13 l-199 0
-159 235 c-88 129 -163 233 -166 232 -3 -1 -95 -107 -204 -235 l-199 -232 -73
0 c-40 0 -73 2 -73 5 0 3 108 131 240 285 132 154 240 283 240 285 0 3 -100
153 -223 333 -123 180 -227 333 -231 340 -6 9 35 12 191 12 l199 0 143 -210z"/>
<path d="M471 1253 c0 -5 157 -237 348 -518 l348 -510 56 -3 c31 -2 57 0 57 3
0 5 -361 538 -617 913 l-84 122 -54 0 c-30 0 -55 -3 -54 -7z"/>
</g>
</svg>
